<svg width="76" height="63" xmlns="http://www.w3.org/2000/svg"><g transform="translate(1 1)" stroke-width="2" stroke="#00A3DA" fill="none" fill-rule="evenodd"><path d="M65 28.6c.1.8.1 1.6.1 2.5 0 15.1-12.2 27.4-27.4 27.4-4.4 0-8.5-1-12.2-2.8M10.4 31c0-15.1 12.2-27.4 27.4-27.4 3.4 0 6.7.6 9.7 1.8"/><path d="M27.3 61L25 55.4l5.6-2.3M45.2 0l2.3 5.6-5.6 2.3"/><circle cx="12.6" cy="43.2" r="12.5"/><path d="M12.6 44.5c-1.2 0-2.2-.4-3-1.3-.8-.8-1.3-1.9-1.3-3 0-1.2.4-2.2 1.3-3.1.8-.9 1.9-1.3 3-1.3s2.2.4 3 1.3c.8.9 1.3 1.9 1.3 3.1 0 1.2-.4 2.2-1.3 3-.8.9-1.8 1.3-3 1.3zm-8.7 7.6c0-1.3 1-2.3 3-3.1 2-.8 3.9-1.2 5.7-1.2 1.8 0 3.7.4 5.7 1.2 2 .8 3 1.8 3 3.1"/><circle cx="61.5" cy="17" r="12.5"/><path d="M61.5 18.2c-1.2 0-2.2-.4-3-1.3-.8-.8-1.3-1.9-1.3-3s.4-2.2 1.3-3.1c.8-.9 1.9-1.3 3-1.3 1.2 0 2.2.4 3 1.3.8.9 1.3 1.9 1.3 3.1 0 1.2-.4 2.2-1.3 3-.8.9-1.8 1.3-3 1.3zm-8.7 7.7c0-1.3 1-2.3 3-3.1 2-.8 3.9-1.2 5.7-1.2 1.8 0 3.7.4 5.7 1.2 2 .8 3 1.8 3 3.1"/></g></svg>