<svg width="57" height="57" xmlns="http://www.w3.org/2000/svg"><g transform="translate(1 1)" stroke-width="2" stroke="#00A3DA" fill="none" fill-rule="evenodd"><path d="M44.4 28.6c-1.6 0-2.9-.6-4.1-1.7-1.1-1.1-1.7-2.5-1.7-4.1 0-1.6.6-3 1.7-4.1 1.1-1.2 2.5-1.7 4.1-1.7 1.6 0 2.9.6 4.1 1.7 1.1 1.2 1.7 2.5 1.7 4.1 0 1.6-.6 2.9-1.7 4.1-1.1 1.1-2.5 1.7-4.1 1.7zM32.8 38.8c0-1.7 1.3-3.1 4-4.2S42 33 44.5 33c2.4 0 5 .5 7.7 1.6.7.3 1.2.6 1.7.9m-43.5-6.9c-1.6 0-2.9-.6-4.1-1.7-1.1-1.1-1.7-2.5-1.7-4.1 0-1.6.6-3 1.7-4.1 1.1-1.2 2.5-1.7 4.1-1.7 1.6 0 2.9.6 4.1 1.7 1.1 1.2 1.7 2.5 1.7 4.1 0 1.6-.6 2.9-1.7 4.1-1.1 1.1-2.5 1.7-4.1 1.7zM.9 35.7l.8-.6c.4-.2.7-.4 1.2-.5 2.7-1.1 5.2-1.6 7.7-1.6 2.4 0 5 .5 7.7 1.6s4 2.5 4 4.2"/><path d="M27.6 33.2c-2 0-3.8-.7-5.2-2.2-1.5-1.5-2.2-3.2-2.2-5.2s.7-3.8 2.2-5.3c1.5-1.5 3.2-2.2 5.2-2.2s3.8.7 5.2 2.2c1.5 1.5 2.2 3.2 2.2 5.3 0 2.1-.7 3.8-2.2 5.2-1.4 1.5-3.1 2.2-5.2 2.2zM13 51v-5.5c0-2.2 1.4-4.1 4.8-5.5 3.4-1.4 6.7-2.1 9.8-2.1 3.1 0 6.4.7 9.8 2.1 3.4 1.4 5.6 3.1 5.6 5.4V50"/><circle cx="27.5" cy="27.5" r="27.5"/></g></svg>