<?xml version="1.0" encoding="UTF-8" standalone="no"?>
<svg width="443px" height="99px" viewBox="0 0 443 99" version="1.1" xmlns="http://www.w3.org/2000/svg" xmlns:xlink="http://www.w3.org/1999/xlink">
    <!-- Generator: Sketch 39.1 (31720) - http://www.bohemiancoding.com/sketch -->
    <title>infiniscope-white-type</title>
    <desc>Created with Sketch.</desc>
    <defs></defs>
    <g id="Page-1" stroke="none" stroke-width="1" fill="none" fill-rule="evenodd">
        <g id="infiniscope-white-type" fill="#FFFFFF">
            <polygon id="Fill-1" points="0 74.487 10.213 74.487 10.213 2.99 0 2.99"></polygon>
            <path d="M29.315,31.078 C31.868,28.627 36.771,25.46 43.716,25.46 C50.764,25.46 57.096,28.729 61.182,33.938 C64.246,37.819 65.88,42.722 65.88,50.995 L65.88,74.487 L56.177,74.487 L56.177,50.484 C56.177,44.356 55.053,41.496 53.317,39.351 C51.07,36.492 47.393,34.653 43.41,34.653 C37.077,34.653 32.481,38.023 29.621,41.496 L29.621,74.487 L19.918,74.487 L19.918,26.481 L29.315,26.481 L29.315,31.078" id="Fill-2"></path>
            <path d="M101.12,10.548 C100.405,10.344 98.873,10.14 97.545,10.14 C94.787,10.14 91.825,11.366 90.191,13.51 C88.863,15.247 88.352,17.698 88.352,22.09 L88.352,26.481 L103.162,26.481 L103.162,35.164 L88.352,35.164 L88.352,74.487 L78.649,74.487 L78.649,35.164 L67.414,35.164 L67.414,26.481 L78.649,26.481 L78.649,22.396 C78.649,15.962 79.569,11.978 81.714,8.914 C85.186,3.909 90.906,0.947 97.443,0.947 C99.486,0.947 101.835,1.253 103.162,1.662 L101.12,10.548" id="Fill-3"></path>
            <path d="M110.824,74.486 L120.527,74.486 L120.527,26.481 L110.824,26.481 L110.824,74.486 Z M115.624,2.99 C119.2,2.99 122.059,5.85 122.059,9.425 C122.059,12.999 119.2,15.757 115.624,15.757 C112.05,15.757 109.292,12.999 109.292,9.425 C109.292,5.85 112.05,2.99 115.624,2.99 L115.624,2.99 Z" id="Fill-4"></path>
            <path d="M139.117,31.078 C141.671,28.627 146.573,25.46 153.518,25.46 C160.566,25.46 166.899,28.729 170.984,33.938 C174.048,37.819 175.683,42.722 175.683,50.995 L175.683,74.487 L165.98,74.487 L165.98,50.484 C165.98,44.356 164.856,41.496 163.119,39.351 C160.873,36.492 157.196,34.653 153.213,34.653 C146.88,34.653 142.284,38.023 139.423,41.496 L139.423,74.487 L129.72,74.487 L129.72,26.481 L139.117,26.481 L139.117,31.078" id="Fill-5"></path>
            <path d="M183.855,74.486 L193.558,74.486 L193.558,26.481 L183.855,26.481 L183.855,74.486 Z M188.655,2.99 C192.23,2.99 195.09,5.85 195.09,9.425 C195.09,12.999 192.23,15.757 188.655,15.757 C185.081,15.757 182.323,12.999 182.323,9.425 C182.323,5.85 185.081,2.99 188.655,2.99 L188.655,2.99 Z" id="Fill-6"></path>
            <path d="M205.202,61.72 C209.696,65.192 214.599,67.031 219.4,67.031 C223.587,67.031 227.775,64.784 227.775,61.005 C227.775,55.489 219.808,55.183 212.76,52.833 C206.939,50.893 201.73,47.216 201.73,40.475 C201.73,30.159 210.922,25.46 219.502,25.46 C226.549,25.46 231.656,27.707 235.435,30.772 L230.431,37.717 C227.469,35.47 223.996,33.938 220.115,33.938 C215.416,33.938 211.433,36.185 211.433,39.964 C211.433,43.232 215.212,44.356 220.012,45.582 C227.571,47.523 237.478,50.893 237.478,60.8 C237.478,69.891 229.001,75.508 219.604,75.508 C211.944,75.508 205.509,73.159 200.198,68.869 L205.202,61.72" id="Fill-7"></path>
            <path d="M351.872,59.472 C355.141,63.864 360.146,66.316 365.049,66.316 C374.343,66.316 380.982,59.064 380.982,50.484 C380.982,42.109 374.854,34.653 365.559,34.653 C359.737,34.653 354.835,37.615 351.872,41.496 L351.872,59.472 L351.872,59.472 Z M351.872,99 L342.169,99 L342.169,26.481 L351.566,26.481 L351.566,30.874 C355.958,27.094 361.167,25.46 366.58,25.46 C371.074,25.46 375.058,26.584 378.326,28.524 C385.578,32.814 390.685,40.883 390.685,50.484 C390.685,60.085 385.681,68.052 378.429,72.342 C375.16,74.282 370.666,75.508 366.377,75.508 C360.657,75.508 355.754,73.67 351.872,70.299 L351.872,99 L351.872,99 Z" id="Fill-8"></path>
            <path d="M406.009,44.356 L432.156,44.356 C430.726,38.228 425.211,33.938 419.491,33.938 C413.26,33.938 407.643,38.125 406.009,44.356 L406.009,44.356 Z M405.192,52.527 C405.702,60.596 412.341,67.031 420.717,67.031 C427.867,67.031 431.748,63.558 434.505,60.494 L440.838,66.52 C437.263,71.116 430.42,75.508 420.615,75.508 C406.622,75.508 395.795,64.886 395.795,50.484 C395.795,36.083 405.6,25.46 419.184,25.46 C432.565,25.46 442.268,36.287 442.268,50.484 C442.268,50.893 442.268,51.608 442.166,52.527 L405.192,52.527 L405.192,52.527 Z" id="Fill-9"></path>
            <path d="M311.96,25.199 C301.602,25.199 293.153,30.911 289.337,39.551 C289.333,39.56 289.327,39.564 289.323,39.573 C285.708,47.501 283.863,54.303 280.703,58.599 C277.639,62.684 273.145,66.054 266.813,66.054 C257.62,66.054 250.879,59.62 250.879,50.223 C250.879,41.133 257.518,34.391 266.2,34.391 C272.328,34.391 277.5,38.183 280.156,41.86 L280.162,41.854 C280.226,41.94 280.281,42.021 280.342,42.105 L284.695,33.27 C280.126,28.359 273.472,25.199 266.2,25.199 C251.798,25.199 241.176,36.026 241.176,50.223 C241.176,64.42 252.003,75.247 266.813,75.247 C275.596,75.247 284.176,70.651 288.16,64.011 C288.16,64.011 288.63,63.282 289.635,61.554 C291.966,57.359 294.475,48.556 298.456,41.607 C301.658,36.018 305.575,34.185 311.96,34.234 C320.846,34.303 327.076,41.361 327.076,50.144 C327.076,58.928 320.846,66.015 311.96,66.015 C311.491,66.015 311.03,66.01 310.576,65.972 L310.581,65.986 C310.563,65.984 310.545,65.985 310.527,65.983 C309.359,65.88 308.242,65.657 307.189,65.317 C301.811,63.787 298.349,60.482 297.003,58.982 C295.954,61.067 294.057,64.619 292.952,66.675 C297.424,71.984 304.143,75.247 311.96,75.247 C326.157,75.247 336.78,64.522 336.78,50.223 C336.78,35.924 326.157,25.199 311.96,25.199" id="Fill-10"></path>
        </g>
    </g>
</svg>