<svg xmlns="http://www.w3.org/2000/svg" xmlns:xlink="http://www.w3.org/1999/xlink" width="460.268" height="116.053" viewBox="0 0 460.268 116.053">
  <defs>
    <filter id="Fill-1" x="0" y="2.043" width="28.213" height="89.497" filterUnits="userSpaceOnUse">
      <feOffset dy="3" input="SourceAlpha"/>
      <feGaussianBlur stdDeviation="3" result="blur"/>
      <feFlood flood-opacity="0.4"/>
      <feComposite operator="in" in2="blur"/>
      <feComposite in="SourceGraphic"/>
    </filter>
    <filter id="Fill-2" x="19.918" y="24.513" width="63.962" height="67.027" filterUnits="userSpaceOnUse">
      <feOffset dy="3" input="SourceAlpha"/>
      <feGaussianBlur stdDeviation="3" result="blur-2"/>
      <feFlood flood-opacity="0.4"/>
      <feComposite operator="in" in2="blur-2"/>
      <feComposite in="SourceGraphic"/>
    </filter>
    <filter id="Fill-3" x="67.414" y="0" width="53.748" height="91.54" filterUnits="userSpaceOnUse">
      <feOffset dy="3" input="SourceAlpha"/>
      <feGaussianBlur stdDeviation="3" result="blur-3"/>
      <feFlood flood-opacity="0.4"/>
      <feComposite operator="in" in2="blur-3"/>
      <feComposite in="SourceGraphic"/>
    </filter>
    <filter id="Fill-4" x="109.292" y="2.043" width="30.767" height="89.496" filterUnits="userSpaceOnUse">
      <feOffset dy="3" input="SourceAlpha"/>
      <feGaussianBlur stdDeviation="3" result="blur-4"/>
      <feFlood flood-opacity="0.4"/>
      <feComposite operator="in" in2="blur-4"/>
      <feComposite in="SourceGraphic"/>
    </filter>
    <filter id="Fill-5" x="129.72" y="24.513" width="63.963" height="67.027" filterUnits="userSpaceOnUse">
      <feOffset dy="3" input="SourceAlpha"/>
      <feGaussianBlur stdDeviation="3" result="blur-5"/>
      <feFlood flood-opacity="0.4"/>
      <feComposite operator="in" in2="blur-5"/>
      <feComposite in="SourceGraphic"/>
    </filter>
    <filter id="Fill-6" x="182.323" y="2.043" width="30.767" height="89.496" filterUnits="userSpaceOnUse">
      <feOffset dy="3" input="SourceAlpha"/>
      <feGaussianBlur stdDeviation="3" result="blur-6"/>
      <feFlood flood-opacity="0.4"/>
      <feComposite operator="in" in2="blur-6"/>
      <feComposite in="SourceGraphic"/>
    </filter>
    <filter id="Fill-7" x="200.198" y="24.513" width="55.28" height="68.048" filterUnits="userSpaceOnUse">
      <feOffset dy="3" input="SourceAlpha"/>
      <feGaussianBlur stdDeviation="3" result="blur-7"/>
      <feFlood flood-opacity="0.4"/>
      <feComposite operator="in" in2="blur-7"/>
      <feComposite in="SourceGraphic"/>
    </filter>
    <filter id="Fill-8" x="342.169" y="24.513" width="66.516" height="91.54" filterUnits="userSpaceOnUse">
      <feOffset dy="3" input="SourceAlpha"/>
      <feGaussianBlur stdDeviation="3" result="blur-8"/>
      <feFlood flood-opacity="0.4"/>
      <feComposite operator="in" in2="blur-8"/>
      <feComposite in="SourceGraphic"/>
    </filter>
    <filter id="Fill-9" x="395.795" y="24.513" width="64.473" height="68.048" filterUnits="userSpaceOnUse">
      <feOffset dy="3" input="SourceAlpha"/>
      <feGaussianBlur stdDeviation="3" result="blur-9"/>
      <feFlood flood-opacity="0.4"/>
      <feComposite operator="in" in2="blur-9"/>
      <feComposite in="SourceGraphic"/>
    </filter>
    <filter id="Fill-10" x="241.176" y="24.252" width="113.604" height="68.048" filterUnits="userSpaceOnUse">
      <feOffset dy="3" input="SourceAlpha"/>
      <feGaussianBlur stdDeviation="3" result="blur-10"/>
      <feFlood flood-opacity="0.4"/>
      <feComposite operator="in" in2="blur-10"/>
      <feComposite in="SourceGraphic"/>
    </filter>
  </defs>
  <g id="logo" transform="translate(9 5.053)">
    <g id="infiniscope-white-type">
      <g transform="matrix(1, 0, 0, 1, -9, -5.05)" filter="url(#Fill-1)">
        <path id="Fill-1-2" data-name="Fill-1" d="M0,74.487H10.213V2.99H0Z" transform="translate(9 5.05)" fill="#ebebeb" fill-rule="evenodd"/>
      </g>
      <g transform="matrix(1, 0, 0, 1, -9, -5.05)" filter="url(#Fill-2)">
        <path id="Fill-2-2" data-name="Fill-2" d="M29.315,31.078a20.8,20.8,0,0,1,14.4-5.618,22.129,22.129,0,0,1,17.466,8.478c3.064,3.881,4.7,8.784,4.7,17.057V74.487h-9.7v-24c0-6.128-1.124-8.988-2.86-11.133a12.662,12.662,0,0,0-9.907-4.7A17.752,17.752,0,0,0,29.621,41.5V74.487h-9.7V26.481h9.4v4.6" transform="translate(9 5.05)" fill="#ebebeb" fill-rule="evenodd"/>
      </g>
      <g transform="matrix(1, 0, 0, 1, -9, -5.05)" filter="url(#Fill-3)">
        <path id="Fill-3-2" data-name="Fill-3" d="M101.12,10.548a15.671,15.671,0,0,0-3.575-.408,9.476,9.476,0,0,0-7.354,3.37c-1.328,1.737-1.839,4.188-1.839,8.58v4.391h14.81v8.683H88.352V74.487h-9.7V35.164H67.414V26.481H78.649V22.4c0-6.434.92-10.418,3.065-13.482A18.8,18.8,0,0,1,97.443.947a22.313,22.313,0,0,1,5.719.715l-2.042,8.886" transform="translate(9 5.05)" fill="#ebebeb" fill-rule="evenodd"/>
      </g>
      <g transform="matrix(1, 0, 0, 1, -9, -5.05)" filter="url(#Fill-4)">
        <path id="Fill-4-2" data-name="Fill-4" d="M110.824,74.486h9.7v-48h-9.7Zm4.8-71.5a6.408,6.408,0,0,1,6.435,6.435,6.322,6.322,0,0,1-6.435,6.332,6.236,6.236,0,0,1-6.332-6.332,6.322,6.322,0,0,1,6.332-6.435Z" transform="translate(9 5.05)" fill="#ebebeb" fill-rule="evenodd"/>
      </g>
      <g transform="matrix(1, 0, 0, 1, -9, -5.05)" filter="url(#Fill-5)">
        <path id="Fill-5-2" data-name="Fill-5" d="M139.117,31.078a20.8,20.8,0,0,1,14.4-5.618,22.128,22.128,0,0,1,17.466,8.478c3.064,3.881,4.7,8.784,4.7,17.057V74.487h-9.7v-24c0-6.128-1.124-8.988-2.861-11.133a12.659,12.659,0,0,0-9.906-4.7,17.756,17.756,0,0,0-13.79,6.843V74.487h-9.7V26.481h9.4v4.6" transform="translate(9 5.05)" fill="#ebebeb" fill-rule="evenodd"/>
      </g>
      <g transform="matrix(1, 0, 0, 1, -9, -5.05)" filter="url(#Fill-6)">
        <path id="Fill-6-2" data-name="Fill-6" d="M183.855,74.486h9.7v-48h-9.7Zm4.8-71.5a6.408,6.408,0,0,1,6.435,6.435,6.322,6.322,0,0,1-6.435,6.332,6.236,6.236,0,0,1-6.332-6.332,6.322,6.322,0,0,1,6.332-6.435Z" transform="translate(9 5.05)" fill="#ebebeb" fill-rule="evenodd"/>
      </g>
      <g transform="matrix(1, 0, 0, 1, -9, -5.05)" filter="url(#Fill-7)">
        <path id="Fill-7-2" data-name="Fill-7" d="M205.2,61.72a23.384,23.384,0,0,0,14.2,5.311c4.187,0,8.375-2.247,8.375-6.026,0-5.516-7.967-5.822-15.015-8.172-5.821-1.94-11.03-5.617-11.03-12.358,0-10.316,9.192-15.015,17.772-15.015a24.393,24.393,0,0,1,15.933,5.312l-5,6.945a17.039,17.039,0,0,0-10.316-3.779c-4.7,0-8.682,2.247-8.682,6.026,0,3.268,3.779,4.392,8.579,5.618,7.559,1.941,17.466,5.311,17.466,15.218,0,9.091-8.477,14.708-17.874,14.708A29.974,29.974,0,0,1,200.2,68.869l5-7.149" transform="translate(9 5.05)" fill="#ebebeb" fill-rule="evenodd"/>
      </g>
      <g transform="matrix(1, 0, 0, 1, -9, -5.05)" filter="url(#Fill-8)">
        <path id="Fill-8-2" data-name="Fill-8" d="M351.872,59.472a16.662,16.662,0,0,0,13.177,6.844,15.674,15.674,0,0,0,15.933-15.832c0-8.375-6.128-15.831-15.423-15.831A17.3,17.3,0,0,0,351.872,41.5V59.472Zm0,39.528h-9.7V26.481h9.4v4.393A22.487,22.487,0,0,1,366.58,25.46a22.833,22.833,0,0,1,11.746,3.064,25.369,25.369,0,0,1,12.359,21.96,25.111,25.111,0,0,1-12.256,21.858,24.617,24.617,0,0,1-12.052,3.166A21.565,21.565,0,0,1,351.872,70.3V99Z" transform="translate(9 5.05)" fill="#ebebeb" fill-rule="evenodd"/>
      </g>
      <g transform="matrix(1, 0, 0, 1, -9, -5.05)" filter="url(#Fill-9)">
        <path id="Fill-9-2" data-name="Fill-9" d="M406.009,44.356h26.147a13.412,13.412,0,0,0-12.665-10.418,13.951,13.951,0,0,0-13.482,10.418Zm-.817,8.171a15.467,15.467,0,0,0,15.525,14.5c7.15,0,11.031-3.473,13.788-6.537l6.333,6.026c-3.575,4.6-10.418,8.988-20.223,8.988-13.993,0-24.82-10.622-24.82-25.024s9.8-25.024,23.389-25.024c13.381,0,23.084,10.827,23.084,25.024a17.609,17.609,0,0,1-.1,2.043Z" transform="translate(9 5.05)" fill="#ebebeb" fill-rule="evenodd"/>
      </g>
      <g transform="matrix(1, 0, 0, 1, -9, -5.05)" filter="url(#Fill-10)">
        <path id="Fill-10-2" data-name="Fill-10" d="M311.96,25.2c-10.358,0-18.807,5.712-22.623,14.352,0,.009-.01.013-.014.022-3.615,7.928-5.46,14.73-8.62,19.026-3.064,4.085-7.558,7.455-13.89,7.455-9.193,0-15.934-6.434-15.934-15.831,0-9.09,6.639-15.832,15.321-15.832,6.128,0,11.3,3.792,13.956,7.469l.006-.006c.064.086.119.167.18.251L284.7,33.27A25.354,25.354,0,0,0,266.2,25.2c-14.4,0-25.024,10.827-25.024,25.024S252,75.247,266.813,75.247c8.783,0,17.363-4.6,21.347-11.236,0,0,.47-.729,1.475-2.457,2.331-4.195,4.84-13,8.821-19.947,3.2-5.589,7.119-7.422,13.5-7.373,8.886.069,15.116,7.127,15.116,15.91s-6.23,15.871-15.116,15.871c-.469,0-.93,0-1.384-.043l.005.014-.054,0a15.2,15.2,0,0,1-3.338-.666A22.174,22.174,0,0,1,297,58.982c-1.049,2.085-2.946,5.637-4.051,7.693a24.465,24.465,0,0,0,19.008,8.572c14.2,0,24.82-10.725,24.82-25.024S326.157,25.2,311.96,25.2" transform="translate(9 5.05)" fill="#ebebeb" fill-rule="evenodd"/>
      </g>
    </g>
  </g>
</svg>
